<svg width="32" height="32" viewBox="0 0 32 32" fill="none" xmlns="http://www.w3.org/2000/svg">
<path d="M22.4247 8.44722C22.7389 8.19069 23.203 8.2089 23.496 8.5019C23.7886 8.79492 23.8071 9.25904 23.5507 9.57319L23.496 9.63276L17.1288 15.9999L23.494 22.3671C23.8063 22.6796 23.8064 23.1856 23.494 23.498C23.1816 23.8104 22.6755 23.8104 22.3632 23.498L15.9979 17.1308L9.6327 23.498C9.32029 23.8102 8.81416 23.8104 8.50184 23.498C8.18976 23.1856 8.18984 22.6795 8.50184 22.3671L14.8671 15.9999L8.50086 9.63276L8.44618 9.57319C8.18971 9.25896 8.20797 8.79491 8.50086 8.5019C8.79375 8.20896 9.25699 8.19085 9.57118 8.44722L9.63172 8.5019L15.9979 14.8691L22.3651 8.5019L22.4247 8.44722Z" fill="white"/>
<path d="M22.2562 8.23945C22.6751 7.89754 23.294 7.92174 23.6846 8.31237C24.0745 8.70283 24.0987 9.32063 23.7575 9.73945L23.6833 9.82148L17.5062 15.9986L23.682 22.177C24.0985 22.5936 24.0985 23.2695 23.682 23.6861C23.2655 24.1021 22.5905 24.1024 22.1742 23.6861L15.9971 17.5077L9.82131 23.6861C9.40485 24.1022 8.72992 24.1023 8.31349 23.6861C7.89698 23.2695 7.89698 22.5936 8.31349 22.177L14.4893 15.9999L8.31219 9.82148L8.23927 9.73945C7.89762 9.32048 7.92177 8.70293 8.31219 8.31237C8.70273 7.92176 9.32035 7.89757 9.73927 8.23945L9.82131 8.31237L15.9971 14.4908L22.1755 8.31237L22.2562 8.23945Z" fill="white"/>
</svg>
