<svg width="120" height="120" viewBox="0 0 120 120" fill="none" xmlns="http://www.w3.org/2000/svg">
<g id="logo">
<g id="Group 243">
<path id="Union" fill-rule="evenodd" clip-rule="evenodd" d="M62.36 27.4672C61.732 28.0606 60.9179 28.4029 60.0107 28.4029H59.9642H59.941H59.8944C59.0105 28.4029 58.1964 28.0834 57.5684 27.4672C56.9636 26.8738 56.638 26.0979 56.638 25.2535V11.1723C56.638 9.41497 58.1034 8 59.8712 8H60.0573C61.8483 8.02282 63.2904 9.43779 63.2904 11.1723V25.2535C63.2904 26.0751 62.9648 26.8738 62.36 27.4672ZM102.415 63.6166H116.744L116.767 63.5938C118.558 63.5938 120 65.0315 120 66.766V66.9486C119.977 68.7059 118.535 70.1208 116.767 70.1208H105.881L105.765 71.2163C104.671 82.3306 99.4379 92.6006 90.9944 100.177C82.5044 107.8 71.5022 111.999 60.0116 111.999C48.521 111.999 37.5189 107.8 29.0289 100.177C20.5854 92.6006 15.3518 82.3078 14.2586 71.2163L14.1423 70.1208H3.23318C1.44214 70.1208 0 68.7059 0 66.9714V66.7888C0.0232603 65.0315 1.4654 63.6166 3.23318 63.6166H17.6081C18.4454 63.6166 19.2595 63.9361 19.8643 64.5295C20.4691 65.1228 20.818 65.9444 20.818 66.8117V66.8573C20.818 88.059 38.4028 105.312 60.0116 105.312C81.6205 105.312 99.2053 88.059 99.2053 66.8573V66.8117C99.2053 65.9444 99.5309 65.1456 100.159 64.5295C100.764 63.9361 101.555 63.6166 102.415 63.6166ZM87.6454 35.1355C87.0406 35.7289 86.715 36.5276 86.715 37.3492C86.715 38.2165 87.0639 39.0152 87.6919 39.6314L87.7617 39.6999C88.3897 40.3161 89.2038 40.6584 90.0877 40.6584C90.9484 40.6584 91.7392 40.3389 92.344 39.7455L102.509 29.7723C103.765 28.5399 103.765 26.5544 102.532 25.322L102.346 25.1394C101.718 24.5461 100.904 24.2266 100.09 24.2266C99.2756 24.2266 98.4382 24.5461 97.8102 25.1623L87.6454 35.1355ZM27.6568 39.7221L17.5153 29.7717L17.4688 29.7489C16.236 28.5165 16.236 26.531 17.4688 25.2986L17.6548 25.116C18.2829 24.4998 19.097 24.2031 19.9111 24.2031C20.7252 24.2031 21.5626 24.5226 22.1906 25.1388L32.3554 35.1121C32.9601 35.7054 33.2858 36.4814 33.2858 37.3258C33.2858 38.193 32.9369 38.9918 32.3088 39.608L32.2391 39.6765C31.611 40.2927 30.7969 40.635 29.913 40.635C29.0757 40.635 28.2615 40.3155 27.6568 39.7221Z" fill="#FCAF17"/>
<path id="Union_2" fill-rule="evenodd" clip-rule="evenodd" d="M75.3165 54.3972C74.2 54.3972 73.2231 54.0093 72.409 53.2333L72.3625 53.1877C71.5716 52.3889 71.1529 51.4304 71.1529 50.3121V39.2891C71.1529 38.3762 71.9205 37.623 72.8509 37.623H72.9207C73.8744 37.623 74.6187 38.3762 74.6187 39.2891V41.5713H76.8284C77.7821 41.5713 78.5264 42.3244 78.5264 43.2373V43.3057C78.5264 44.2414 77.7588 44.9717 76.8284 44.9717H74.6187V50.3349C74.6187 50.5175 74.6885 50.6544 74.828 50.7914C74.9676 50.9283 75.1072 50.9968 75.3165 50.9968H77.5728C78.5264 50.9968 79.2708 51.7499 79.2708 52.6628V52.7312C79.2708 53.6669 78.5032 54.3972 77.5728 54.3972H75.3165ZM62.2673 54.4204C64.1281 54.466 65.7331 53.827 67.0356 52.5489C68.315 51.2937 68.943 49.7875 68.943 48.0302V43.2832C68.943 42.3703 68.1987 41.6172 67.245 41.6172H67.1752C66.2448 41.6172 65.4772 42.3475 65.4772 43.2832V48.0302C65.4772 48.8746 65.1748 49.5593 64.57 50.1526C63.9653 50.746 63.2675 51.0427 62.4068 51.0427C61.5462 51.0427 60.8251 50.746 60.2204 50.1526C59.6156 49.5593 59.3132 48.8746 59.3132 48.0302V43.2832C59.3132 42.3703 58.5689 41.6172 57.6152 41.6172H57.5454C56.615 41.6172 55.8474 42.3475 55.8474 43.2832V48.0302C55.8474 49.6962 56.4289 51.1568 57.592 52.3664C58.7782 53.6216 60.453 54.3747 62.2208 54.4204H62.2673ZM47.2415 41.6406C48.9395 41.6406 50.591 42.2796 51.8238 43.4436V43.3979C53.1496 44.6531 53.8242 46.205 53.8242 48.008V53.7819C53.8242 55.5392 53.1961 57.0683 51.9168 58.3007C51.219 58.9854 50.4514 59.4646 49.5908 59.7841C48.4976 60.1949 47.3113 59.3962 47.3113 58.2322V58.1638C47.3113 57.4791 47.7532 56.8629 48.4278 56.6119C48.8232 56.4749 49.1721 56.2467 49.4977 55.9272C50.0793 55.3338 50.3816 54.6492 50.3816 53.8048V53.645C49.4512 54.1699 48.4045 54.421 47.3113 54.421C45.5202 54.421 43.9851 53.8048 42.7057 52.5496C41.4032 51.2715 40.7519 49.7196 40.7984 47.8939C40.8216 46.205 41.5427 44.6075 42.7755 43.4436C44.0083 42.2568 45.5202 41.6406 47.2415 41.6406ZM47.288 51.0661C48.1486 51.0661 48.8697 50.7694 49.4745 50.1761V50.1532C50.0793 49.5599 50.3816 48.8752 50.3816 48.0308C50.3816 47.1864 50.0793 46.5017 49.4745 45.8855C48.8697 45.315 48.1254 45.0183 47.288 45.0183C46.4506 45.0183 45.7296 45.315 45.1248 45.9083C44.52 46.5017 44.2177 47.2092 44.2177 48.0536C44.2177 48.898 44.52 49.5827 45.1248 50.1761C45.7296 50.7694 46.4274 51.0661 47.288 51.0661ZM86.7151 61.3356C85.5288 60.0804 83.8541 59.3272 82.0863 59.2816C80.2255 59.2359 78.6205 59.875 77.3179 61.153C76.0619 62.3854 75.4106 63.9145 75.4106 65.6718V70.3959C75.4106 71.3088 76.1549 72.0619 77.1086 72.0619H77.1783C78.1088 72.0619 78.8764 71.3316 78.8764 70.3959V65.6718C78.8764 64.8273 79.1787 64.1199 79.7835 63.5265C80.3883 62.9331 81.0861 62.6364 81.9467 62.6364C82.8073 62.6364 83.5052 62.9331 84.1099 63.5265C84.7147 64.1199 85.0171 64.8273 85.0171 65.6718V70.3959C85.0171 71.3088 85.7614 72.0619 86.7151 72.0619H86.7849C87.7153 72.0619 88.4829 71.3316 88.4829 70.3959V65.6718C88.4829 64.0057 87.9014 62.5451 86.7383 61.3127L86.7151 61.3356ZM62.5015 61.1527C61.2455 59.9203 59.687 59.2812 57.896 59.2812C56.1049 59.2812 54.5698 59.9203 53.2904 61.1527C52.0111 62.385 51.3831 63.9141 51.3831 65.6714C51.3831 67.4287 52.0344 68.935 53.2904 70.1902C54.5465 71.4226 56.1049 72.0616 57.896 72.0616C59.687 72.0616 61.2455 71.4226 62.5015 70.1902C63.7809 68.935 64.4089 67.4287 64.4089 65.6714C64.4089 63.9141 63.7576 62.385 62.5015 61.1527ZM60.9664 65.6714C60.9664 66.5158 60.664 67.2005 60.0592 67.7939C59.4544 68.3872 58.7566 68.6839 57.896 68.6839C57.0354 68.6839 56.3376 68.3872 55.7328 67.7939C55.128 67.2005 54.8256 66.5158 54.8256 65.6714C54.8256 64.827 55.128 64.1195 55.7328 63.5261C56.3376 62.9328 57.0354 62.6361 57.896 62.6361C58.7566 62.6361 59.4544 62.9328 60.0592 63.5261C60.664 64.1195 60.9664 64.827 60.9664 65.6714ZM45.8928 64.4866C45.8928 63.9617 45.7067 63.5509 45.3346 63.1858L45.4509 63.2086C45.0787 62.8434 44.66 62.6609 44.125 62.6609C43.59 62.6609 43.1481 62.8434 42.7759 63.2086C42.427 63.5737 42.2409 64.0074 42.2409 64.5095V70.4204C42.2409 71.3561 41.4734 72.0864 40.5429 72.0864H40.4732C39.5195 72.0864 38.7752 71.3332 38.7752 70.4204V64.5095C38.7752 63.9845 38.5891 63.5737 38.2169 63.2086C37.8447 62.8434 37.4028 62.6609 36.8911 62.6609C36.3328 62.6609 35.8909 62.8663 35.4954 63.2771C35.1931 63.5966 35.0302 64.0302 35.0302 64.4866V70.3975C35.0302 71.3332 34.2627 72.0635 33.3322 72.0635H33.2625C32.3088 72.0635 31.5645 71.3104 31.5645 70.3975V64.4866C31.5645 63.0717 32.0762 61.8393 33.0996 60.8123C34.1463 59.8081 35.4722 59.2832 36.8678 59.2832C38.2634 59.2832 39.473 59.7396 40.4499 60.6525C41.4268 59.7396 42.6131 59.2832 44.0552 59.2832C45.4974 59.2832 46.7534 59.7853 47.8002 60.8123C48.8236 61.8164 49.3586 63.0717 49.3586 64.4866V70.3975C49.3586 71.3332 48.591 72.0635 47.6606 72.0635H47.5908C46.6371 72.0635 45.8928 71.3104 45.8928 70.3975V64.4866ZM45.4277 76.17H45.4975C46.5675 76.17 47.4514 75.3256 47.4514 74.253C47.4514 73.2032 46.5908 72.3359 45.4975 72.3359H45.4277C44.3578 72.3359 43.4739 73.1804 43.4739 74.253C43.4739 75.3028 44.3345 76.17 45.4277 76.17ZM45.4984 76.9238H45.4518C44.5141 76.9238 43.7538 77.6697 43.7538 78.5898V88.0382C43.7538 88.9583 44.5141 89.7042 45.4518 89.7042H45.4984C46.4361 89.7042 47.1964 88.9583 47.1964 88.0382V78.5898C47.1964 77.6697 46.4361 76.9238 45.4984 76.9238ZM51.429 78.7952C52.6851 77.5628 54.2435 76.9238 56.0113 76.9238H56.1044C57.8954 76.9238 59.4306 77.54 60.7099 78.7952C61.966 80.0276 62.6172 81.5567 62.6172 83.314V88.0382C62.6172 88.9739 61.8497 89.7042 60.9192 89.7042H60.8495C59.8958 89.7042 59.1515 88.951 59.1515 88.0382V83.314C59.1515 82.5381 58.8723 81.8534 58.3373 81.2828C57.7558 80.6666 56.9185 80.3015 56.0578 80.3015C55.1972 80.3015 54.4994 80.5982 53.8946 81.1915C53.2899 81.7849 52.9875 82.4924 52.9875 83.3368V88.061C52.9875 88.9967 52.2199 89.727 51.2895 89.727H51.2197C50.266 89.727 49.5217 88.9739 49.5217 88.061V83.4281C49.5217 81.6936 50.173 80.0276 51.429 78.7952ZM75.4118 78.8167C74.1558 77.5615 72.5973 76.9453 70.8063 76.9453C69.0152 76.9453 67.4801 77.5843 66.224 78.8167C64.9447 80.0491 64.3167 81.5782 64.3167 83.3355C64.3167 85.0928 64.9679 86.599 66.224 87.8543C67.4801 89.1095 69.0385 89.7257 70.8296 89.7257C71.9228 89.7257 72.9695 89.4746 73.9232 88.9497V89.1095C73.9232 89.9539 73.6208 90.6385 73.0393 91.2319C72.7136 91.5514 72.3647 91.7796 71.9693 91.9166C71.2948 92.1676 70.8528 92.7838 70.8528 93.4685V93.5369C70.8528 94.7009 72.0391 95.4996 73.1323 95.0888C73.993 94.7693 74.7605 94.2901 75.4584 93.6054C76.7377 92.373 77.3657 90.8439 77.3657 89.0866V83.3127C77.3657 81.5554 76.7144 80.0263 75.4584 78.7939L75.4118 78.8167ZM72.9695 85.4579C72.3647 86.0513 71.6437 86.348 70.783 86.348C69.9224 86.348 69.2246 86.0513 68.6198 85.4579C68.015 84.8646 67.7127 84.1571 67.7127 83.3355C67.7127 82.5139 68.015 81.7836 68.6198 81.1902C69.2246 80.5968 69.9457 80.3002 70.783 80.3002C71.6204 80.3002 72.3647 80.5968 72.9695 81.1674C73.5743 81.7836 73.8767 82.4683 73.8767 83.3127C73.8767 84.1571 73.5743 84.8417 72.9695 85.4351V85.4579ZM66.339 65.6719C66.339 63.9146 66.967 62.3856 68.2463 61.1532H68.2696C68.9674 60.4685 69.735 59.9892 70.5723 59.6697C71.6656 59.2589 72.8518 60.0577 72.8518 61.2216V61.2901C72.8518 61.9748 72.3866 62.591 71.7353 62.842C71.3399 62.9789 70.991 63.2072 70.6654 63.5267C70.0839 64.12 69.7815 64.8275 69.7815 65.6719V70.3733C69.7815 71.309 69.0139 72.0621 68.0602 72.0621C67.1065 72.0621 66.339 71.309 66.339 70.3733V65.6719Z" fill="white"/>
</g>
</g>
</svg>
