<svg width="151" height="150" viewBox="0 0 151 150" fill="none" xmlns="http://www.w3.org/2000/svg">
<path d="M29.5064 71.9814C26.9977 87.0934 36.5464 101.899 51.9578 105.92C67.3693 109.941 83.1638 101.747 88.6521 87.4125C89.7447 83.3904 91.7533 79.8111 94.2038 76.7183C100.329 68.9878 110.065 64.5182 120.263 65.0995C122.305 65.2159 124.365 65.5347 126.419 66.0705C142.832 70.3527 152.595 86.8664 148.227 102.956L148.234 102.958C144.038 118.411 133.751 131.597 119.636 139.616C105.522 147.635 88.7361 149.829 72.9721 145.717C57.2079 141.604 43.7566 131.521 35.5773 117.685C27.3979 103.85 25.1604 87.3957 29.3571 71.9424L29.5064 71.9814Z" fill="#134A9D"/>
<path d="M148.358 102.421C151.15 87.7859 140.171 72.5739 124.707 68.7631C109.242 64.9524 94.0427 73.341 88.75 87.749C87.2807 91.749 85.2702 95.4108 82.862 98.5367C76.8429 106.35 67.1682 110.951 56.9637 110.509C54.9202 110.421 52.8556 110.13 50.7947 109.622C34.3251 105.564 25 90.749 28.4868 73.037L28.4794 73.0351C32.5 55.749 42.5721 44.2009 56.576 35.9907C70.58 27.7805 87.3342 25.3579 103.153 29.2558C118.971 33.1538 132.559 43.053 140.926 56.7757C149.293 70.4985 152.344 86.9117 148.358 102.421Z" fill="#D0303C"/>
<path d="M62.2133 105.004H62.1335C60.5258 105.004 59.2225 106.266 59.2225 107.823V123.813C59.2225 125.37 60.5258 126.632 62.1335 126.632H62.2133C63.821 126.632 65.1243 125.37 65.1243 123.813V107.823C65.1243 106.266 63.821 105.004 62.2133 105.004Z" fill="white"/>
<path d="M62.092 103.731H62.2116C64.046 103.731 65.5613 102.302 65.5613 100.486C65.5613 98.7098 64.0859 97.2422 62.2116 97.2422H62.092C60.2576 97.2422 58.7423 98.6712 58.7423 100.486C58.7423 102.263 60.2178 103.731 62.092 103.731Z" fill="white"/>
<path d="M80.2347 105.004C77.2041 105.004 74.5323 106.085 72.3789 108.171C70.2256 110.256 69.109 113.076 69.109 116.011V123.851C69.109 125.396 70.3851 126.671 72.02 126.671H72.1397C73.7348 126.671 75.0507 125.435 75.0507 123.851V115.857C75.0507 114.428 75.5691 113.23 76.6059 112.226C77.6427 111.222 78.839 110.72 80.3145 110.72C81.79 110.72 83.2255 111.338 84.2225 112.381C85.1396 113.346 85.6182 114.505 85.6182 115.818V123.813C85.6182 125.358 86.8942 126.632 88.5292 126.632H88.6488C90.2439 126.632 91.5599 125.396 91.5599 123.813V115.818C91.5599 112.844 90.4433 110.256 88.2899 108.171C86.0967 106.047 83.4648 105.004 80.3943 105.004H80.2347Z" fill="white"/>
<path d="M113.496 108.21C111.343 106.086 108.671 105.043 105.601 105.043C102.53 105.043 99.8981 106.124 97.7447 108.21C95.5515 110.296 94.4748 112.883 94.4748 115.857C94.4748 118.831 95.5914 121.38 97.7447 123.504C99.8981 125.628 102.57 126.671 105.64 126.671C107.515 126.671 109.309 126.246 110.944 125.358V125.628C110.944 127.057 110.426 128.216 109.429 129.22C108.87 129.761 108.272 130.147 107.594 130.379C106.438 130.804 105.68 131.847 105.68 133.005V133.121C105.68 135.091 107.714 136.443 109.588 135.747C111.064 135.207 112.38 134.396 113.576 133.237C115.769 131.151 116.846 128.564 116.846 125.59V115.818C116.846 112.845 115.729 110.257 113.576 108.171L113.496 108.21ZM109.309 119.449C108.272 120.453 107.036 120.955 105.561 120.955C104.085 120.955 102.889 120.453 101.852 119.449C100.815 118.445 100.297 117.247 100.297 115.857C100.297 114.467 100.815 113.231 101.852 112.227C102.889 111.222 104.125 110.72 105.561 110.72C106.996 110.72 108.272 111.222 109.309 112.188C110.346 113.231 110.864 114.389 110.864 115.818C110.864 117.247 110.346 118.406 109.309 119.41V119.449Z" fill="white"/>
<path d="M61.9331 81.7567C62.5711 82.3746 62.8901 83.0698 62.8901 83.9581V93.9612C62.8901 95.5061 64.1662 96.7806 65.8011 96.7806H65.9208C67.5159 96.7806 68.8318 95.5447 68.8318 93.9612V83.9581C68.8318 81.5636 67.9146 79.4394 66.16 77.74C64.3656 76.002 62.2122 75.1523 59.7398 75.1523C57.2674 75.1523 55.2337 75.9248 53.5588 77.4697C51.884 75.9248 49.8104 75.1523 47.4178 75.1523C45.0251 75.1523 42.7521 76.0406 40.9576 77.74C39.203 79.478 38.3257 81.5636 38.3257 83.9581V93.9612C38.3257 95.5061 39.6018 96.7806 41.2368 96.7806H41.3564C42.9515 96.7806 44.2675 95.5447 44.2675 93.9612V83.9581C44.2675 83.1857 44.5466 82.4519 45.065 81.9112C45.7429 81.216 46.5006 80.8684 47.4576 80.8684C48.3349 80.8684 49.0926 81.1774 49.7306 81.7953C50.3687 82.4133 50.6877 83.1085 50.6877 83.9968V93.9998C50.6877 95.5447 51.9638 96.8192 53.5987 96.8192H53.7184C55.3134 96.8192 56.6294 95.5833 56.6294 93.9998V83.9968C56.6294 83.1471 56.9484 82.4133 57.5466 81.7953C58.1846 81.1774 58.9423 80.8684 59.8594 80.8684C60.7766 80.8684 61.4944 81.1774 62.1325 81.7953L61.9331 81.7567Z" fill="white"/>
<path d="M91.3622 78.3193C89.2088 76.2338 86.5371 75.1523 83.4665 75.1523C80.396 75.1523 77.7641 76.2338 75.5708 78.3193C73.3776 80.4049 72.3009 82.9926 72.3009 85.9665C72.3009 88.9404 73.4175 91.4894 75.5708 93.6136C77.7242 95.6992 80.396 96.7806 83.4665 96.7806C86.5371 96.7806 89.2088 95.6992 91.3622 93.6136C93.5555 91.4894 94.6321 88.9404 94.6321 85.9665C94.6321 82.9926 93.5156 80.4049 91.3622 78.3193ZM88.7303 85.9665C88.7303 87.3955 88.2119 88.5541 87.1751 89.5583C86.1383 90.5625 84.942 91.0646 83.4665 91.0646C81.9911 91.0646 80.7947 90.5625 79.7579 89.5583C78.7211 88.5541 78.2027 87.3955 78.2027 85.9665C78.2027 84.5375 78.7211 83.3402 79.7579 82.336C80.7947 81.3318 81.9911 80.8298 83.4665 80.8298C84.942 80.8298 86.1383 81.3318 87.1751 82.336C88.2119 83.3402 88.7303 84.5375 88.7303 85.9665Z" fill="white"/>
<path d="M101.212 78.3202C99.0184 80.4058 97.9417 82.9935 97.9417 85.9673V93.9234C97.9417 95.5069 99.2577 96.7815 100.893 96.7815C102.528 96.7815 103.844 95.5069 103.844 93.9234V85.9673C103.844 84.5383 104.362 83.3411 105.359 82.3369C105.917 81.7962 106.515 81.41 107.193 81.1782C108.31 80.7534 109.107 79.7106 109.107 78.5519V78.4361C109.107 76.4664 107.074 75.1146 105.199 75.8098C103.764 76.3505 102.448 77.1616 101.252 78.3202H101.212Z" fill="white"/>
<path d="M132.875 78.6283C130.841 76.5041 127.97 75.2295 124.94 75.1523C121.749 75.0751 118.998 76.1565 116.765 78.3193C114.611 80.4049 113.495 82.9926 113.495 85.9664V93.9612C113.495 95.506 114.771 96.7806 116.406 96.7806H116.525C118.121 96.7806 119.436 95.5447 119.436 93.9612V85.9664C119.436 84.5374 119.955 83.3401 120.992 82.336C122.028 81.3318 123.225 80.8297 124.7 80.8297C126.176 80.8297 127.372 81.3318 128.409 82.336C129.446 83.3401 129.964 84.5374 129.964 85.9664V93.9612C129.964 95.506 131.24 96.7806 132.875 96.7806H132.995C134.59 96.7806 135.906 95.5447 135.906 93.9612V85.9664C135.906 83.147 134.909 80.6752 132.915 78.5897L132.875 78.6283Z" fill="white"/>
<path d="M73.0575 48.348C70.944 46.3783 68.1127 45.2969 65.2017 45.2969C62.2508 45.2969 59.6588 46.3397 57.5453 48.348C55.4318 50.3177 54.1956 53.0212 54.1557 55.8793C54.076 58.969 55.1925 61.5953 57.4257 63.7581C59.6189 65.8823 62.2508 66.9251 65.3213 66.9251C67.1956 66.9251 68.99 66.5003 70.5851 65.612V65.8823C70.5851 67.3113 70.0667 68.47 69.0698 69.4742C68.5115 70.0149 67.9134 70.4011 67.2354 70.6328C66.079 71.0577 65.3213 72.1005 65.3213 73.2591V73.375C65.3213 75.3447 67.3551 76.6965 69.2293 76.0013C70.7048 75.4606 72.0207 74.6495 73.217 73.4908C75.4103 71.4053 76.4869 68.8176 76.4869 65.8437V56.0724C76.4869 53.0213 75.3305 50.395 73.0575 48.2708V48.348ZM69.0299 59.7415C67.9931 60.7456 66.7569 61.2477 65.2815 61.2477C63.806 61.2477 62.6097 60.7456 61.5729 59.7415C60.5361 58.7373 60.0177 57.5786 60.0177 56.1496C60.0177 54.7206 60.5361 53.5233 61.5729 52.5192C62.6097 51.515 63.8459 51.0129 65.2815 51.0129C66.717 51.0129 67.9931 51.515 69.0299 52.4805C70.0667 53.5233 70.5851 54.682 70.5851 56.111C70.5851 57.54 70.0667 58.6987 69.0299 59.7028V59.7415Z" fill="white"/>
<path d="M90.962 66.9247C94.1522 67.0019 96.9037 65.9205 99.1368 63.7577C101.33 61.6335 102.407 59.0845 102.407 56.1106V48.0772C102.407 46.5323 101.131 45.2578 99.4957 45.2578H99.3761C97.781 45.2578 96.465 46.4937 96.465 48.0772V56.1106C96.465 57.5396 95.9466 58.6982 94.9098 59.7024C93.873 60.7066 92.6767 61.2087 91.2012 61.2087C89.7258 61.2087 88.4896 60.7066 87.4528 59.7024C86.416 58.6982 85.8976 57.5396 85.8976 56.1106V48.0772C85.8976 46.5323 84.6215 45.2578 82.9865 45.2578H82.8669C81.2718 45.2578 79.9559 46.4937 79.9559 48.0772V56.1106C79.9559 58.93 80.9528 61.4018 82.9467 63.4487C84.9804 65.5729 87.8516 66.8475 90.8822 66.9247H90.962Z" fill="white"/>
<path d="M108.348 64.9174C109.743 66.2305 111.418 66.8871 113.332 66.8871H117.201C118.796 66.8871 120.112 65.6512 120.112 64.0677V63.9518C120.112 62.4069 118.835 61.1324 117.201 61.1324H113.332C112.974 61.1324 112.734 61.0166 112.495 60.7848C112.256 60.5531 112.136 60.3214 112.136 60.0124V50.9362H115.924C117.52 50.9362 118.835 49.7003 118.835 48.1168V48.001C118.835 46.4561 117.559 45.1816 115.924 45.1816H112.136V41.3194C112.136 39.7745 110.86 38.5 109.225 38.5H109.105C107.51 38.5 106.194 39.7745 106.194 41.3194V59.9738C106.194 61.8662 106.912 63.4883 108.268 64.8401L108.348 64.9174Z" fill="white"/>
<path d="M21.4668 59.4944C22.479 59.765 23.5441 59.6192 24.4356 59.1194C25.3767 58.5919 26.0309 57.7417 26.3169 56.7111L26.3487 56.5966C26.6348 55.566 26.5103 54.5077 25.9719 53.5848C25.4477 52.6861 24.6192 52.0547 23.607 51.7841L6.5933 47.2367C4.49093 46.6748 2.33645 47.8825 1.75014 49.9194L1.66538 50.2248C1.40408 51.2415 1.55329 52.2859 2.0492 53.136C2.54511 53.9861 3.40188 54.6661 4.45307 54.9471L21.4668 59.4944Z" fill="#FCAF17"/>
<path d="M34.7795 34.0137C35.5212 34.7411 36.5196 35.1328 37.5466 35.1328C38.6307 35.1328 39.6291 34.7131 40.3993 33.9577L40.4849 33.8738C41.2552 33.1183 41.6831 32.1391 41.6831 31.0759C41.6831 30.0407 41.2837 29.0894 40.542 28.3619L28.0756 16.1352C26.5351 14.6243 24.0532 14.6243 22.5127 16.1072L22.2845 16.331C21.5428 17.0865 21.1434 18.0657 21.1434 19.045C21.1434 20.0242 21.5428 21.0315 22.3131 21.7869L34.7795 34.0137Z" fill="#FCAF17"/>
<path d="M58.5749 21.1228C58.5125 22.1495 58.8767 23.1414 59.5586 23.8942C60.2784 24.6888 61.2615 25.1419 62.3492 25.2049L62.4701 25.2119C63.5577 25.2749 64.5888 24.9383 65.3998 24.2323C66.1895 23.5449 66.6499 22.6205 66.7123 21.5938L67.7609 4.33769C67.8905 2.20535 66.2425 0.386197 64.0885 0.241706L63.7662 0.223055C62.6975 0.181009 61.6854 0.538504 60.9384 1.18874C60.1914 1.83897 59.6883 2.80051 59.6235 3.86668L58.5749 21.1228Z" fill="#FCAF17"/>
</svg>
